<?xml version="1.0" encoding="utf-8"?>
<!-- Generator: Adobe Illustrator 22.0.1, SVG Export Plug-In . SVG Version: 6.00 Build 0)  -->
<svg version="1.1" id="Layer_1" xmlns="http://www.w3.org/2000/svg" xmlns:xlink="http://www.w3.org/1999/xlink" x="0px" y="0px"
	 viewBox="0 0 71 71" style="enable-background:new 0 0 71 71;" xml:space="preserve">
<style type="text/css">
	.st0{fill:#002857;}
</style>
<g>
	<path class="st0" d="M53.5,45c-1.7-1.5-4.4-2.3-8.2-2.3c-0.7,0-1.6,0-2.7,0.1l-5.9,19.4c2.5,0.3,4.4,0.5,5.8,0.5
		c3.5,0,6.7-1,9.4-3.1c2.7-2,4.1-4.8,4.1-8.3C56,48.5,55.2,46.5,53.5,45z"/>
	<path class="st0" d="M57.2,37.5c2.3-2,3.5-4.4,3.5-7.4c0-2.2-0.7-4-2.1-5.2c-1.4-1.2-3.7-1.9-6.7-1.9c-0.8,0-1.9,0.1-3.1,0.4
		l-5.2,17c1.5,0,2.5,0.1,3.2,0.1C51.4,40.5,54.9,39.5,57.2,37.5z"/>
	<path class="st0" d="M50.3,64.4c-1.9,0.4-4.8,0.6-8.7,0.6h-17l0.4-1.2c1.8,0,3-0.2,3.6-0.5c0.9-0.4,1.6-0.9,1.9-1.5
		c0.5-0.8,1.3-2.7,2.2-5.7L41,29.3c0.7-2.3,1.1-3.9,1.1-4.8c0-0.8-0.3-1.4-0.9-1.9c-0.6-0.5-1.8-0.7-3.6-0.7c-0.4,0-0.7,0-1.1,0
		l0.2-1.2h16.8c2.8,0,5.2,0.4,7.4,1.2c2.2,0.8,3.8,2,4.9,3.5c1.1,1.5,1.6,3,1.6,4.7c0,2.5-1,4.8-2.9,6.9c-1.9,2.1-5,3.6-9.4,4.5
		c2.8,1,4.8,2.3,6.2,4c1.3,1.7,2,3.5,2,5.4c0,2.2-0.6,4.3-1.8,6.3c-0.3,0.5-0.6,1-1,1.4c5.6-6.1,9-14.3,9-23.3
		C69.6,16.5,54.2,1,35,1C20,1,7.2,10.7,2.5,24.1c0.1-0.3,0.3-0.5,0.4-0.8c2.3-4,5.5-7.1,9.6-9.4c4-2.3,8.1-3.4,12.3-3.4
		c1.9,0,4.1,0.4,6.5,1.3c1,0.4,1.8,0.6,2.3,0.6s0.9-0.1,1.2-0.3s0.9-0.7,1.8-1.6h1.1l-3,12.4h-1.1c0,0,0-4.5-0.8-6.2
		c-0.9-1.5-3.3-3.2-7.3-3.7c-3.8-0.5-8.1,1.6-9.4,2.5c-3.3,2.4-5.8,5.8-7.7,10.1C6.8,29.2,5.9,32.5,5.9,36c0,3.7,1.1,6.7,3.4,8.9
		c2.2,2.2,4.7,3,8.3,3c2.7,0,4.9-0.6,7-1.8s3.9-2.7,5.7-5.1h2.2c-2.1,3.3-4.8,5.7-7.4,7.3s-5.7,2.3-9.4,2.3c-3.2,0-6.1-0.7-8.6-2
		c-2.4-1.3-4.3-3.1-5.6-5.4C5.1,58.5,18.8,69.9,35,69.9c8.8,0,16.8-3.3,22.9-8.7c-0.3,0.2-0.6,0.5-1,0.7
		C55.2,63.2,52.9,64,50.3,64.4z"/>
</g>
</svg>
