<svg id="Layer_1" xmlns="http://www.w3.org/2000/svg" viewBox="0 0 302 47">
  <style>
    .st1{fill:#002857}
  </style>
  <path class="st1" d="M73.7 28.5c-1.3.6-2.4 1-3.4 1.3s-1.9.5-3 .6c-1 .1-2.1.2-3.2.2-4.7 0-7.8-1.4-9.4-4.2S53 20.2 54 16c1-4.3 3-7.8 5.9-10.6 2.9-2.8 6.7-4.1 11.4-4.1 2.5 0 5.3.4 8.5 1.2l-.9 3.7c-2.6-1-4.4-1.5-5.4-1.7-1-.2-2-.3-3-.3-3.4 0-6.1 1.2-8.1 3.4-2.1 2.3-3.5 5-4.3 8.3-.8 3.4-.6 6.2.6 8.3 1.2 2.1 3.4 3.2 6.6 3.2.9 0 1.8-.1 2.7-.3.9-.2 1.8-.4 2.8-.7 1-.3 2.1-.8 3.6-1.5l-.7 3.6zM75.8 29.9L93.6 2h3.9l4.3 28h-4.3l-1.2-7.7H84.4L79.5 30h-3.7zm10.5-10.7h9.6L94 7.1l-7.7 12.1zM104.3 29.4l1-3.9c2 1 3.5 1.7 4.5 1.9s1.9.3 2.8.3c1.6 0 3-.5 4.1-1.3a4.6 4.6 0 0 0 2.1-3.2c.2-.9.2-1.7-.1-2.6-.3-.8-1.3-1.7-3-2.8l-1.7-1.1c-2.3-1.5-3.6-2.8-4.3-4-.6-1.2-.7-2.5-.4-4 .3-1.3 1-2.6 1.9-3.7s2.1-2.1 3.5-2.7c1.4-.6 2.9-1 4.7-1 2.2 0 4.4.4 6.6 1.1l-.8 3.6c-1.9-.8-3.2-1.3-3.9-1.5-.7-.2-1.5-.3-2.3-.3-1.6 0-2.9.5-3.9 1.3s-1.5 1.7-1.8 2.6c-.1.6-.1 1.2.1 1.9.2.6.6 1.2 1.1 1.6.5.5 1.2 1 2.2 1.6l1.7 1.2c2.3 1.5 3.7 2.8 4.3 4.1.6 1.2.6 2.6.3 4.3-.5 2.2-1.8 4.1-3.9 5.7-2.1 1.6-4.7 2.4-7.9 2.4-1 0-1.9-.1-2.8-.2-1-.5-2.3-.8-4.1-1.3zM123.4 29.9l17.8-28h3.9l4.3 28h-4.3l-1.2-7.7H132l-4.9 7.7h-3.7zm10.4-10.7h9.6l-1.9-12.1-7.7 12.1zM153.3 29.9L160 2h7.3c3.2 0 5.3.6 6.3 1.8 1 1.2 1.4 2.6 1 4.3-.3 1.4-1.1 2.7-2.3 4.1s-3 2.4-5.2 3.2c1.7.6 2.9 1.2 3.6 1.9.7.7 1.2 1.5 1.5 2.6.3 1 .3 2.1 0 3.1-.3 1.3-.9 2.5-1.9 3.6-1 1.1-2 1.9-3.3 2.5-1.2.6-3 .8-5.4.8h-8.3zm7.7-15.7h1.3c2.3 0 4.2-.5 5.5-1.5 1.4-1 2.2-2.3 2.5-3.7.3-1.4.1-2.3-.7-3-.8-.7-2.4-1-4.8-1h-1.5l-2.3 9.2zM158 27h.8c2.8 0 4.7-.1 5.7-.5.9-.3 1.7-.8 2.3-1.5.6-.7 1-1.5 1.3-2.4a4 4 0 0 0-1.3-4.1c-1.2-1.1-3-1.7-5.3-1.7h-1.2L158 27zM175.6 29.9l6.7-28h3.9l-5.9 25h12.5l-.7 3h-16.5zM193 29.9l17.8-28h3.9l4.3 28h-4.3l-1.2-7.7h-11.9l-4.9 7.7H193zm10.4-10.7h9.6l-1.9-12.1-7.7 12.1zM222.9 29.9l6.7-28h3.9l8.8 21.6L247.6 2h3.4l-6.7 28h-3.9l-8.9-21.6-5.2 21.6h-3.4zM272.8 28.5c-1.3.6-2.4 1-3.4 1.3s-1.9.5-3 .6c-1 .1-2.1.2-3.2.2-4.7 0-7.8-1.4-9.4-4.2s-1.8-6.3-.8-10.5c1-4.3 3-7.8 5.9-10.6 2.9-2.8 6.7-4.1 11.4-4.1 2.5 0 5.3.4 8.5 1.2l-.9 3.7c-2.6-1-4.4-1.5-5.4-1.7-1-.2-2-.3-3-.3-3.4 0-6.1 1.2-8.1 3.4-2.1 2.3-3.5 5-4.3 8.3-.8 3.4-.6 6.2.6 8.3 1.2 2.1 3.4 3.2 6.6 3.2.9 0 1.8-.1 2.7-.3.9-.1 1.9-.4 2.8-.7 1-.3 2.1-.8 3.6-1.5l-.6 3.7zM275 29.9l17.8-28h3.9l4.3 28h-4.3l-1.2-7.7h-11.9l-4.9 7.7H275zm10.5-10.7h9.6l-1.9-12.1-7.7 12.1zM58.4 45v-8.5H61c.8 0 1.4.2 1.9.5.5.4.6.9.6 1.5 0 .5-.1 1-.5 1.4-.3.5-.7.8-1.2 1l2.8 3.9h-1.5l-2.4-3.6h-1.2v3.6l-1.1.2zm1.2-4.5h.4c.7 0 1.3-.1 1.7-.5.4-.3.6-.8.6-1.3 0-.9-.6-1.3-1.9-1.3h-.8v3.1zM65.8 45v-8.5H67V45h-1.2zM68.7 44.8v-1.2c1 .5 1.7.6 2.3.6.5 0 .8-.1 1.2-.4.3-.3.5-.6.5-1 0-.3-.1-.6-.3-.8-.2-.3-.5-.5-1-.8l-.7-.2c-.7-.4-1.2-.8-1.5-1.2-.3-.4-.5-.8-.5-1.3 0-.6.3-1.2.7-1.6.5-.5 1.1-.6 1.8-.6.6 0 1.4.1 2.1.3v1.1c-.9-.3-1.5-.5-2-.5-.4 0-.8.1-1 .3-.3.2-.4.5-.4.8 0 .3.1.5.3.8.2.2.6.5 1.1.8l.6.3c.7.4 1.2.8 1.5 1.2.3.4.5.8.5 1.4 0 .7-.3 1.4-.8 1.7-.5.5-1.2.6-2.1.6-.7.1-1.4-.1-2.3-.3zM75.5 45v-8.5h1.1v4.1l3.4-4.1h1.2l-3.3 4 3.9 4.5h-1.5l-3.7-4.3V45h-1.1zM86.9 45v-8.5h1.7l2.3 6.5 2.4-6.5h1.5V45h-1.1v-6.9l-2.3 6.3h-1.2l-2.3-6.3V45h-1zM95.9 45l3.4-8.5h1.2l3.3 8.5h-1.3l-.9-2.3H98L97 45h-1.1zm2.4-3.3h2.9L99.8 38l-1.5 3.7zM105 45v-8.5h1.2l4.3 6.5v-6.5h1V45h-1.2l-4.3-6.5V45h-1zM112.6 45l3.4-8.5h1.2l3.3 8.5h-1.3l-.9-2.3h-3.6l-.9 2.3h-1.2zm2.5-3.3h2.9l-1.4-3.7-1.5 3.7zM128.1 44.7c-1 .3-1.9.5-2.7.5-1.4 0-2.4-.4-3.1-1.2-.7-.8-1.1-1.9-1.1-3.3s.4-2.5 1.1-3.3c.7-.8 1.7-1.2 3.1-1.2.8 0 1.7.1 2.6.4v1.1c-1.2-.4-2.1-.6-2.7-.6-.9 0-1.6.3-2.1.9-.5.6-.8 1.5-.8 2.6s.3 2 .8 2.6c.5.6 1.3.9 2.3.9.4 0 .8-.1 1.3-.2v-2.8h1.2l.1 3.6zM130.2 45v-8.5h4.7v.9h-3.6v2.7h3v.9h-3v3h3.7v1h-4.8zM136.5 45v-8.5h1.7l2.3 6.5 2.4-6.5h1.5V45h-1.2v-6.9l-2.3 6.3h-1.2l-2.3-6.3V45h-.9zM146.6 45v-8.5h4.7v.9h-3.6v2.7h3v.9h-3v3h3.7v1h-4.8zM153 45v-8.5h1.2l4.3 6.5v-6.5h1V45h-1.2l-4.3-6.5V45h-1zM163.7 45v-7.6h-3v-.9h7.2v.9h-3V45h-1.2zM184.6 45v-8.5h1.2V45h-1.2zM187.9 45v-8.5h1.2l4.3 6.5v-6.5h1V45h-1.2l-4.3-6.5V45h-1zM196.1 44.8v-1.2c1 .5 1.7.6 2.4.6.5 0 .8-.1 1.1-.4.3-.3.5-.6.5-1 0-.3-.1-.6-.3-.8-.2-.3-.5-.5-1-.8l-.6-.3c-.7-.4-1.2-.8-1.5-1.2-.3-.4-.5-.8-.5-1.3 0-.6.3-1.2.7-1.6.5-.5 1.1-.6 1.8-.6.6 0 1.4.1 2.1.3v1.1c-.9-.3-1.5-.5-2-.5-.4 0-.8.1-1 .3-.3.2-.4.5-.4.8 0 .3.1.5.3.8.2.2.6.5 1.1.8l.6.3c.7.4 1.2.8 1.5 1.2.3.4.5.8.5 1.4 0 .7-.3 1.4-.8 1.7-.5.5-1.2.6-2.1.6-.8.2-1.5 0-2.4-.2zM202.9 36.5h1.2v5.4c0 .8.1 1.5.5 1.9.3.4.8.6 1.5.6.6 0 1.2-.2 1.4-.5.3-.4.5-1 .5-1.9v-5.4h1V42c0 .7-.1 1.3-.2 1.7-.1.4-.4.8-.8 1-.5.4-1.1.6-1.9.6-1.1 0-1.9-.3-2.4-.8s-.8-1.4-.8-2.5v-5.5zM211.1 45v-8.5h2.6c.8 0 1.4.2 1.9.5.5.4.6.9.6 1.5 0 .5-.1 1-.5 1.4-.3.5-.7.8-1.2 1l2.8 3.9h-1.5l-2.4-3.6h-1.2v3.6l-1.1.2zm1.1-4.5h.4c.7 0 1.3-.1 1.7-.5.4-.3.6-.8.6-1.3 0-.9-.6-1.3-1.9-1.3h-.8v3.1zM217.4 45l3.4-8.5h1.2l3.3 8.5H224l-.9-2.3h-3.6l-.9 2.3h-1.2zm2.4-3.3h2.9l-1.4-3.7-1.5 3.7zM226.5 45v-8.5h1.2L232 43v-6.5h1V45h-1.2l-4.3-6.5V45h-1zM241.5 44.5c-.8.5-1.7.6-2.7.6-1.3 0-2.3-.4-3-1.2s-1.1-1.9-1.1-3.3.4-2.5 1.1-3.3c.7-.8 1.7-1.2 3.1-1.2.8 0 1.6.1 2.6.4v1.1c-1.2-.4-2.1-.6-2.7-.6-.9 0-1.6.3-2.1.9-.5.6-.8 1.5-.8 2.6s.3 1.9.8 2.6c.5.6 1.3.9 2.2.9.8 0 1.7-.3 2.6-.8v1.3zM243.3 45v-8.5h4.7v.9h-3.5v2.7h3v.9h-3v3h3.7v1h-4.9zM252.3 45l3.4-8.5h1.2l3.3 8.5h-1.3l-.9-2.3h-3.6l-1 2.3h-1.1zm2.4-3.3h2.9l-1.4-3.7-1.5 3.7zM267.7 44.7c-1 .3-1.9.5-2.7.5-1.4 0-2.4-.4-3.1-1.2-.7-.8-1.1-1.9-1.1-3.3s.4-2.5 1.1-3.3c.7-.8 1.7-1.2 3.1-1.2.8 0 1.7.1 2.6.4v1.1c-1.2-.4-2.1-.6-2.7-.6-.9 0-1.6.3-2.1.9-.5.6-.8 1.5-.8 2.6s.3 2 .8 2.6c.5.6 1.3.9 2.3.9.4 0 .8-.1 1.3-.2v-2.8h1.2l.1 3.6zM269.9 45v-8.5h4.7v.9H271v2.7h3v.9h-3v3h3.7v1h-4.8zM276.2 45v-8.5h1.2l4.3 6.5v-6.5h1V45h-1.2l-4.3-6.5V45h-1zM291.2 44.5c-.8.5-1.7.6-2.7.6-1.3 0-2.3-.4-3-1.2s-1.1-1.9-1.1-3.3.4-2.5 1.1-3.3c.7-.8 1.7-1.2 3.1-1.2.8 0 1.6.1 2.6.4v1.1c-1.2-.4-2.1-.6-2.7-.6-.9 0-1.6.3-2.1.9-.5.6-.8 1.5-.8 2.6s.3 1.9.8 2.6c.5.6 1.3.9 2.2.9.8 0 1.7-.3 2.6-.8v1.3zM294.8 45v-3.6l-2.8-4.9h1.4l2.2 3.8 2.4-3.8h1.1l-3 4.9V45h-1.3zM176.8 39.4h3.2v.3c-.5.1-.8.1-1 .3-.2.1-.5.6-1 1.4-.5.8-.9 1.5-1.5 2.3.5.5.8.9 1.2 1.1.3.2.7.3 1 .3s.6-.1.9-.3.4-.5.5-.8l.3.2c-.2.7-.5 1.2-.9 1.5-.4.3-.9.5-1.4.5-.4 0-.8-.1-1.2-.3-.5-.2-.9-.6-1.4-1.1-.6.6-1.2.9-1.7 1.2-.5.2-1 .3-1.6.3-.8 0-1.5-.2-1.9-.6s-.7-1-.7-1.5.2-1.2.6-1.8 1.2-1.2 2.5-1.9c-.3-.5-.4-1-.5-1.3s-.1-.6-.1-1c0-.8.3-1.5 1-1.9.5-.3 1-.5 1.7-.5.6 0 1.1.2 1.5.5.4.3.6.8.6 1.3s-.2 1-.5 1.4c-.4.4-1 .8-1.9 1.3.6 1.2 1.3 2.2 2 3.1.9-1 1.3-1.9 1.3-2.6 0-.3-.1-.5-.2-.6-.1-.1-.3-.2-.5-.3l-.3-.5zm-1.7 4.9c-.6-.9-1.1-1.5-1.4-2-.3-.4-.5-.9-.8-1.5-.6.3-1 .7-1.4 1.2-.3.4-.5.8-.5 1.4 0 .5.2 1 .5 1.4.3.4.8.6 1.4.6.3 0 .6-.1.9-.2.4-.2.8-.6 1.3-.9zm-1.1-4.8c.6-.3 1.1-.6 1.4-1s.5-.8.5-1.2c0-.4-.1-.6-.3-.9-.2-.3-.5-.3-.8-.3-.5 0-.8.1-1 .5-.2.3-.3.6-.3.9 0 .3.1.5.1.8-.1.2.1.7.4 1.2z"/>
  <g>
    <path class="st1" d="M34.6 29.3c-1.1-1-2.8-1.5-5.3-1.5-.5 0-1 0-1.7.1l-3.8 12.5c1.6.2 2.8.3 3.7.3 2.3 0 4.3-.6 6.1-2 1.7-1.3 2.6-3.1 2.6-5.4 0-1.7-.5-3.1-1.6-4zM37 24.4c1.5-1.3 2.3-2.8 2.3-4.8 0-1.4-.5-2.6-1.4-3.4-.9-.8-2.4-1.2-4.3-1.2-.5 0-1.2.1-2 .3l-3.4 11c1 0 1.6.1 2.1.1 2.9 0 5.2-.7 6.7-2z"/>
    <path class="st1" d="M32.5 41.9c-1.2.3-3.1.4-5.6.4h-11l.3-.8c1.2 0 1.9-.1 2.3-.3.6-.3 1-.6 1.2-1 .3-.5.8-1.7 1.4-3.7l5.4-17.3c.5-1.5.7-2.5.7-3.1 0-.5-.2-.9-.6-1.2-.4-.3-1.2-.5-2.3-.5h-.7l.1-.8h10.8c1.8 0 3.4.3 4.8.8s2.5 1.3 3.2 2.3c.7 1 1 1.9 1 3 0 1.6-.6 3.1-1.9 4.5-1.2 1.4-3.2 2.3-6.1 2.9 1.8.6 3.1 1.5 4 2.6.8 1.1 1.3 2.3 1.3 3.5 0 1.4-.4 2.8-1.2 4.1l-.6.9A22.32 22.32 0 0 0 22.5.9c-9.8 0-18 6.3-21.1 14.9.1-.2.2-.3.3-.5 1.5-2.6 3.6-4.6 6.2-6.1S13.1 7 15.8 7c1.2 0 2.6.3 4.2.8.6.3 1.2.4 1.5.4s.6-.1.8-.2.6-.5 1.2-1h.7l-1.9 8h-.7s0-2.9-.5-4-2.1-2.3-4.7-2.6c-2.5-.3-5.2 1-6.1 1.6-2.1 1.5-3.7 3.7-5 6.5-1 2.3-1.6 4.5-1.6 6.8 0 2.4.7 4.3 2.2 5.7 1.4 1.4 3 1.9 5.4 1.9 1.7 0 3.2-.4 4.5-1.2s2.5-1.7 3.7-3.3H21c-1.4 2.1-3.1 3.7-4.8 4.7s-3.7 1.5-6.1 1.5c-2.1 0-3.9-.5-5.6-1.3-1.5-.8-2.8-2-3.6-3.5A22.4 22.4 0 0 0 22.6 45c5.7 0 10.8-2.1 14.8-5.6-.2.1-.4.3-.6.5-1.2 1.1-2.6 1.6-4.3 2z"/>
  </g>
</svg>
