<svg xmlns="http://www.w3.org/2000/svg" viewBox="0 0 40.74 41.19">
  <path d="M32.36 41.18a1.5 1.5 0 0 1-1.14-.54l-4.86-5.77a23.05 23.05 0 0 1-5.99.79 21.86 21.86 0 0 1-14.3-5.13 16.33 16.33 0 0 1 0-25.4 22.52 22.52 0 0 1 28.6 0 16.67 16.67 0 0 1 6.07 12.7 16.88 16.88 0 0 1-6.86 13.34v8.43a1.55 1.55 0 0 1-1.52 1.58zm-5.49-9.68a1.5 1.5 0 0 1 1.15.54l2.82 3.36v-5.04a1.6 1.6 0 0 1 .67-1.3 13.86 13.86 0 0 0 6.2-11.23c0-8.09-7.77-14.67-17.33-14.67S3.05 9.74 3.05 17.83 10.82 32.5 20.37 32.5a20.05 20.05 0 0 0 6.06-.93 1.46 1.46 0 0 1 .44-.07z"/>
  <path d="M14.94 22.17a1 1 0 0 1-.15 0l-.15-.03a1.2 1.2 0 0 1-.14-.04l-.15-.05-.13-.07a1.46 1.46 0 0 1-.13-.08 1.47 1.47 0 0 1-.12-.09 1.52 1.52 0 0 1-.11-.1 1.57 1.57 0 0 1-.1-.12 1.45 1.45 0 0 1-.09-.12l-.07-.14-.07-.14a1.53 1.53 0 0 1-.05-.14 1.3 1.3 0 0 1-.03-.15 1.33 1.33 0 0 1-.03-.15v-.16-.16a1.66 1.66 0 0 1 .06-.3 1.54 1.54 0 0 1 .05-.14l.07-.14.07-.13.1-.13a1.53 1.53 0 0 1 .1-.11c.03-.04.06-.08.1-.1a1.4 1.4 0 0 1 .12-.1 1.25 1.25 0 0 1 .13-.08l.14-.07a1.33 1.33 0 0 1 .14-.05l.14-.04.15-.02a1.41 1.41 0 0 1 .3 0l.15.02a1.33 1.33 0 0 1 .14.04 1.4 1.4 0 0 1 .14.05l.14.07a1.35 1.35 0 0 1 .12.08 1.46 1.46 0 0 1 .12.1 1.52 1.52 0 0 1 .11.1l.1.11a1.45 1.45 0 0 1 .1.13l.07.13.06.14.05.14.04.16a1.58 1.58 0 0 1 .03.3v.16c0 .06-.02.1-.03.15a1.54 1.54 0 0 1-.04.15l-.05.15a1.62 1.62 0 0 1-.23.4 1.53 1.53 0 0 1-.1.11l-.1.1a1.46 1.46 0 0 1-.13.1l-.12.08a1.68 1.68 0 0 1-.28.12 1.33 1.33 0 0 1-.14.04l-.15.02a1.36 1.36 0 0 1-.15 0zM26.19 22.17a1.4 1.4 0 0 1-.15 0l-.15-.03a1.2 1.2 0 0 1-.14-.04 2.07 2.07 0 0 1-.28-.12 1.57 1.57 0 0 1-.25-.17 1.33 1.33 0 0 1-.1-.1 1.52 1.52 0 0 1-.1-.12 1.76 1.76 0 0 1-.24-.4l-.05-.14a1.3 1.3 0 0 1-.03-.15 1.7 1.7 0 0 1-.03-.31v-.16q0-.08.03-.15a1.3 1.3 0 0 1 .03-.15l.05-.15a1.42 1.42 0 0 1 .07-.13l.07-.14.1-.12a1.51 1.51 0 0 1 .1-.12l.1-.1a1.58 1.58 0 0 1 .25-.17 1.47 1.47 0 0 1 .14-.07l.14-.05a1.38 1.38 0 0 1 .14-.04l.15-.02a1.57 1.57 0 0 1 .3 0l.15.02a1.33 1.33 0 0 1 .14.04 1.88 1.88 0 0 1 .4.2 1.3 1.3 0 0 1 .12.09 1.52 1.52 0 0 1 .11.1l.1.12a1.44 1.44 0 0 1 .1.12l.07.14.06.13.05.15.04.15a1.49 1.49 0 0 1 .02.15v.31l-.02.16a1.42 1.42 0 0 1-.04.15l-.05.14-.06.14a1.46 1.46 0 0 1-.27.38l-.1.1a1.3 1.3 0 0 1-.13.1l-.12.07a1.68 1.68 0 0 1-.28.12 1.33 1.33 0 0 1-.14.04l-.15.02a1.43 1.43 0 0 1-.15.01zM20.56 22.17a1.5 1.5 0 0 1-1.07-.46 1.52 1.52 0 0 1-.1-.12 2.16 2.16 0 0 1-.1-.12 1.22 1.22 0 0 1-.07-.14 1.42 1.42 0 0 1-.06-.13 1.53 1.53 0 0 1-.05-.15 2.71 2.71 0 0 1-.06-.3 1.72 1.72 0 0 1 0-.32q0-.08.02-.15a1.58 1.58 0 0 1 .09-.3 1.42 1.42 0 0 1 .06-.14l.08-.14a1.3 1.3 0 0 1 .09-.12 1.52 1.52 0 0 1 .1-.12 1.5 1.5 0 0 1 1.22-.45 1.76 1.76 0 0 1 .3.06 1.31 1.31 0 0 1 .13.05l.14.07a1.57 1.57 0 0 1 .25.17 1.33 1.33 0 0 1 .1.1 1.53 1.53 0 0 1 .1.12 1.76 1.76 0 0 1 .23.4l.05.14a1.3 1.3 0 0 1 .04.15l.02.16a1.5 1.5 0 0 1 0 .31l-.02.16a1.31 1.31 0 0 1-.04.15c0 .05-.03.1-.05.14a1.43 1.43 0 0 1-.06.14l-.08.14-.08.12a1.53 1.53 0 0 1-.1.12l-.11.1a1.57 1.57 0 0 1-.25.17 1.68 1.68 0 0 1-.28.12l-.14.04a1.28 1.28 0 0 1-.15.02 1.4 1.4 0 0 1-.15.01z"/>
</svg>
