<svg xmlns="http://www.w3.org/2000/svg" viewBox="0 0 35.75 49.17">
  <path d="M17.88 49.17a1.71 1.71 0 0 1-.87-.23A34.73 34.73 0 0 1 0 18.8v-.75C.14 12.49 2.13 7.8 5.78 4.5a17.87 17.87 0 0 1 29.97 13.54v.75a35.5 35.5 0 0 1-4.7 17.71 34 34 0 0 1-12.3 12.42 1.71 1.71 0 0 1-.87.24zm0-45.5A13.93 13.93 0 0 0 3.54 18.13l-.01.68a31.09 31.09 0 0 0 14.34 26.4 30.46 30.46 0 0 0 10.15-10.58 31.72 31.72 0 0 0 4.2-15.82v-.67A13.93 13.93 0 0 0 17.86 3.67z"/>
  <path d="M17.92 30.4a11.54 11.54 0 1 1 11.1-11.54 11.32 11.32 0 0 1-11.1 11.53zm0-19.4a7.87 7.87 0 1 0 7.56 7.86A7.72 7.72 0 0 0 17.92 11z"/>
</svg>
