<svg xmlns="http://www.w3.org/2000/svg" viewBox="0 0 38.51 40.04">
  <path d="M28.23 40.04a18.34 18.34 0 0 1-4.45-.58 31.63 31.63 0 0 1-14.56-9A33.5 33.5 0 0 1 .56 15.32C-.7 9.83.2 5.14 3.12 2.1l.84-.87a3.93 3.93 0 0 1 5.7 0l4.8 4.99a4.32 4.32 0 0 1 0 5.94l-2.83 2.94a34.63 34.63 0 0 0 5.4 7.24 33.67 33.67 0 0 0 6.95 5.6L26.82 25a3.93 3.93 0 0 1 5.71 0l4.8 4.99a4.32 4.32 0 0 1 0 5.93l-.84.87a11.1 11.1 0 0 1-8.27 3.25zM6.8 2.99a1.13 1.13 0 0 0-.82.35l-.84.87c-2.19 2.28-2.83 5.97-1.8 10.4a30.41 30.41 0 0 0 7.9 13.73 28.84 28.84 0 0 0 13.2 8.21c4.27 1.07 7.82.4 10.01-1.87l.84-.87a1.25 1.25 0 0 0 0-1.71l-4.8-5a1.13 1.13 0 0 0-1.65 0l-3.6 3.74a1.4 1.4 0 0 1-1.67.28A35.62 35.62 0 0 1 15 24.45a36.91 36.91 0 0 1-6.42-8.93 1.54 1.54 0 0 1 .26-1.74l3.6-3.74a1.25 1.25 0 0 0 0-1.7l-4.8-5a1.13 1.13 0 0 0-.83-.35z"/>
  <path d="M29.76 22.08a1.47 1.47 0 0 1-1.44-1.5 9.71 9.71 0 0 0-9.5-9.88 1.5 1.5 0 0 1 0-2.99A12.65 12.65 0 0 1 31.2 20.58a1.47 1.47 0 0 1-1.44 1.5z"/>
  <path d="M35.83 22.08a1.47 1.47 0 0 1-1.43-1.5c0-8.93-7-16.2-15.58-16.2a1.5 1.5 0 0 1 0-2.98c10.17 0 18.45 8.6 18.45 19.19a1.47 1.47 0 0 1-1.44 1.49z"/>
</svg>
