<svg xmlns="http://www.w3.org/2000/svg" viewBox="0 0 189 189">
    <path d="M192.4 236.6c-7.3-.1-14.6-1-21.7-2.7-24.5-5.9-49.8-20.9-71.1-42.3S63.2 145 57.3 120.5C51 94.6 55.5 72.6 69.8 58.3l4.1-4.1c7.7-7.7 20.2-7.7 27.9 0l23.5 23.4c7.7 7.7 7.7 20.2 0 27.9l-13.9 13.8c7.2 12.4 16.1 23.9 26.4 34 10.1 10.2 21.6 19.1 34 26.4l13.8-13.9c7.7-7.7 20.2-7.7 27.9 0l23.4 23.4c7.7 7.7 7.7 20.2 0 27.9l-4.1 4.1c-10.1 10.2-24 15.4-40.4 15.4zM87.8 62.5c-1.5 0-3 .6-4 1.7l-4.1 4.1c-10.7 10.6-13.8 28-8.8 48.8 5.3 22.1 19 45 38.6 64.5s42.5 33.2 64.5 38.6c20.8 5 38.2 1.9 48.9-8.8l4.1-4.1c2.2-2.2 2.2-5.8 0-8l-23.4-23.4a5.67 5.67 0 0 0-8 0L178 193.5a7 7 0 0 1-8.2 1.3c-14.4-7.4-28.9-18.3-42-31.3s-23.9-27.6-31.3-41.9a7 7 0 0 1 1.3-8.2l17.6-17.6c2.2-2.2 2.2-5.8 0-8L91.8 64.1c-1-1-2.5-1.6-4-1.6z" transform="translate(-54.1 -48.02)"/>
    <path d="M199.9 152.2c-3.9 0-7-3.1-7-7 0-25.6-20.8-46.4-46.5-46.5-3.9 0-7-3.1-7-7s3.1-7 7-7c33.4 0 60.5 27.1 60.5 60.5 0 3.9-3.1 7-7 7z" transform="translate(-54.1 -48.02)"/>
    <path d="M229.6 152.2c-3.9 0-7-3.1-7-7-.1-42-34.1-76.1-76.1-76.1-3.9 0-7-3.1-7-7s3.1-7 7-7c49.8.1 90.1 40.4 90.2 90.2-.1 3.8-3.2 6.9-7.1 6.9z" transform="translate(-54.1 -48.02)"/>
</svg>
