<svg xmlns="http://www.w3.org/2000/svg" viewBox="0 0 33 33">
  <path class="rounded-bg" d="M16.5.5C7.7.5.5 7.7.5 16.5s7.2 16 16 16 16-7.2 16-16-7.2-16-16-16z" fill="#333"/>
  <path class="logo-shape" d="M18.7 9.4c-1.6.6-2.6 2.1-2.5 3.7v.6l-.6-.1c-2.3-.3-4.3-1.3-6.1-3l-.7-.8-.2.6c-.5 1.4-.2 2.8.8 3.8.5.5.4.6-.5.3-.3-.1-.6-.2-.6-.1-.1.1.2 1.3.5 1.7.3.6 1 1.3 1.7 1.6l.6.3h-.7c-.7 0-.7 0-.7.3.3.8 1.3 1.7 2.4 2.1l.8.3-.7.4c-1 .6-2.2.9-3.4 1-.6 0-1 .1-1 .1 0 .1 1.6.8 2.5 1.1 2.7.8 5.9.5 8.3-1 1.7-1 3.4-3 4.2-5 .4-1 .9-2.9.9-3.9 0-.6 0-.7.8-1.4.4-.4.8-.9.9-1 .1-.2.1-.2-.5 0-1.1.4-1.2.3-.7-.2.4-.4.9-1.2.9-1.4 0 0-.2 0-.4.1s-.7.3-1.1.4l-.7.2-.9-.2c-.3-.2-.8-.5-1.1-.6-.6-.1-1.6-.1-2.2.1z" fill="#fff"/>
</svg>
