<svg xmlns="http://www.w3.org/2000/svg" viewBox="0 0 33 33">
    <path class="rounded-bg" d="M16.5.5C7.7.5.5 7.7.5 16.5s7.2 16 16 16 16-7.2 16-16-7.2-16-16-16z" fill="#333"/>
    <path class="logo-shape" d="M16.5 15.7s6.3 0 7.1.8c.8.8.8 4.5.8 4.5s0 3.7-.8 4.5c-.8.7-7.1.8-7.1.8s-6.3 0-7.1-.8c-.8-.8-.8-4.5-.8-4.5s0-3.7.8-4.5c.8-.8 7.1-.8 7.1-.8z" fill="#fff"/>
    <path class="logo-shape" d="M23 21.8v-1.2c0-.4-.1-.8-.3-1-.2-.2-.5-.4-1-.4-.4 0-.7.1-1 .4-.3.3-.4.6-.4 1v2.1c0 .4.1.8.4 1.1.2.3.6.4 1 .4.5 0 .8-.1 1-.4.2-.2.3-.6.3-1.1v-.2h-1v.2c0 .3 0 .5-.1.5s-.2.1-.3.1c-.1 0-.2 0-.3-.1-.1-.1-.1-.3-.1-.5v-.9H23zm-1.8-.7v-.5c0-.2 0-.3.1-.4.1-.1.2-.1.3-.1.1 0 .2 0 .3.1.1.1.1.2.1.4v.5h-.8zM19.6 19.6a.9.9 0 0 0-.7-.3c-.1 0-.3 0-.4.1-.1.1-.3.2-.4.3v-2h-.9V24h.9v-.4c.1.1.3.2.4.3.1.1.3.1.5.1.3 0 .5-.1.6-.3.1-.2.2-.4.2-.8v-2.6c0-.2-.1-.5-.2-.7zm-.7 3.3c0 .1 0 .3-.1.3-.1.1-.1.1-.2.1h-.2c-.1 0-.1-.1-.2-.2v-2.9c.1-.1.1-.1.2-.1h.2c.1 0 .2 0 .3.1.1.1.1.2.1.4-.1-.1-.1 2.3-.1 2.3zM15.6 24v-.5c-.2.2-.3.3-.5.4-.2.1-.4.1-.5.1-.2 0-.4-.1-.5-.2-.1-.1-.2-.3-.2-.6v-3.9h.9V23c0 .1 0 .2.1.2 0 0 .1.1.2.1s.2 0 .3-.1c.1-.1.2-.1.3-.2v-3.5h.9V24h-1zM12.4 18.6V24h-1v-5.4h-1.1v-.9h3.2v.9z" fill="transparent"/>
    <path class="logo-shape" d="M21.6 13.8h-1v-.6c-.2.2-.4.4-.6.5-.2.1-.4.2-.6.2-.2 0-.4-.1-.5-.2-.1-.2-.2-.4-.2-.7V8.6h1v3.9c0 .1 0 .2.1.3 0 .1.1.1.2.1s.2 0 .3-.1l.3-.3V8.6h1v5.2zM17.5 8.9c-.3-.2-.6-.4-1-.4-.5 0-.8.1-1.1.4-.3.2-.4.6-.4.9v2.7c0 .4.1.8.4 1 .3.3.6.4 1.1.4.5 0 .8-.1 1.1-.4.3-.3.4-.6.4-1V9.8c-.1-.4-.3-.7-.5-.9zm-.7 3.7c0 .1 0 .2-.1.3-.1.1-.2.1-.3.1-.1 0-.2 0-.3-.1-.1-.1-.1-.2-.1-.3V9.8c0-.1 0-.2.1-.3.1-.1.2-.1.3-.1.1 0 .2 0 .3.1.1.1.1.2.1.3v2.8zM12.1 6.8h-1.2l1.4 4.2v2.8h1.1v-2.9l1.4-4.1h-1.2l-.7 2.8h-.1z" fill="#fff"/>
</svg>
