<svg xmlns="http://www.w3.org/2000/svg">
  <symbol id="phone-call-icon" viewBox="0 0 38.51 40.04">
    <path d="M28.23 40.04a18.34 18.34 0 0 1-4.45-.58 31.63 31.63 0 0 1-14.56-9A33.5 33.5 0 0 1 .56 15.32C-.7 9.83.2 5.14 3.12 2.1l.84-.87a3.93 3.93 0 0 1 5.7 0l4.8 4.99a4.32 4.32 0 0 1 0 5.94l-2.83 2.94a34.63 34.63 0 0 0 5.4 7.24 33.67 33.67 0 0 0 6.95 5.6L26.82 25a3.93 3.93 0 0 1 5.71 0l4.8 4.99a4.32 4.32 0 0 1 0 5.93l-.84.87a11.1 11.1 0 0 1-8.27 3.25zM6.8 2.99a1.13 1.13 0 0 0-.82.35l-.84.87c-2.19 2.28-2.83 5.97-1.8 10.4a30.41 30.41 0 0 0 7.9 13.73 28.84 28.84 0 0 0 13.2 8.21c4.27 1.07 7.82.4 10.01-1.87l.84-.87a1.25 1.25 0 0 0 0-1.71l-4.8-5a1.13 1.13 0 0 0-1.65 0l-3.6 3.74a1.4 1.4 0 0 1-1.67.28A35.62 35.62 0 0 1 15 24.45a36.91 36.91 0 0 1-6.42-8.93 1.54 1.54 0 0 1 .26-1.74l3.6-3.74a1.25 1.25 0 0 0 0-1.7l-4.8-5a1.13 1.13 0 0 0-.83-.35z"/>
    <path d="M29.76 22.08a1.47 1.47 0 0 1-1.44-1.5 9.71 9.71 0 0 0-9.5-9.88 1.5 1.5 0 0 1 0-2.99A12.65 12.65 0 0 1 31.2 20.58a1.47 1.47 0 0 1-1.44 1.5z"/>
    <path d="M35.83 22.08a1.47 1.47 0 0 1-1.43-1.5c0-8.93-7-16.2-15.58-16.2a1.5 1.5 0 0 1 0-2.98c10.17 0 18.45 8.6 18.45 19.19a1.47 1.47 0 0 1-1.44 1.49z"/>
  </symbol>
  <symbol id="location-icon" viewBox="0 0 35.75 49.17">
      <path d="M17.88 49.17a1.71 1.71 0 0 1-.87-.23A34.73 34.73 0 0 1 0 18.8v-.75C.14 12.49 2.13 7.8 5.78 4.5a17.87 17.87 0 0 1 29.97 13.54v.75a35.5 35.5 0 0 1-4.7 17.71 34 34 0 0 1-12.3 12.42 1.71 1.71 0 0 1-.87.24zm0-45.5A13.93 13.93 0 0 0 3.54 18.13l-.01.68a31.09 31.09 0 0 0 14.34 26.4 30.46 30.46 0 0 0 10.15-10.58 31.72 31.72 0 0 0 4.2-15.82v-.67A13.93 13.93 0 0 0 17.86 3.67z"/>
      <path d="M17.92 30.4a11.54 11.54 0 1 1 11.1-11.54 11.32 11.32 0 0 1-11.1 11.53zm0-19.4a7.87 7.87 0 1 0 7.56 7.86A7.72 7.72 0 0 0 17.92 11z"/>
  </symbol>
  <symbol id="email-us-icon" viewBox="0 0 40.74 41.19">
    <path d="M32.36 41.18a1.5 1.5 0 0 1-1.14-.54l-4.86-5.77a23.05 23.05 0 0 1-5.99.79 21.86 21.86 0 0 1-14.3-5.13 16.33 16.33 0 0 1 0-25.4 22.52 22.52 0 0 1 28.6 0 16.67 16.67 0 0 1 6.07 12.7 16.88 16.88 0 0 1-6.86 13.34v8.43a1.55 1.55 0 0 1-1.52 1.58zm-5.49-9.68a1.5 1.5 0 0 1 1.15.54l2.82 3.36v-5.04a1.6 1.6 0 0 1 .67-1.3 13.86 13.86 0 0 0 6.2-11.23c0-8.09-7.77-14.67-17.33-14.67S3.05 9.74 3.05 17.83 10.82 32.5 20.37 32.5a20.05 20.05 0 0 0 6.06-.93 1.46 1.46 0 0 1 .44-.07z"/>
    <path d="M14.94 22.17a1 1 0 0 1-.15 0l-.15-.03a1.2 1.2 0 0 1-.14-.04l-.15-.05-.13-.07a1.46 1.46 0 0 1-.13-.08 1.47 1.47 0 0 1-.12-.09 1.52 1.52 0 0 1-.11-.1 1.57 1.57 0 0 1-.1-.12 1.45 1.45 0 0 1-.09-.12l-.07-.14-.07-.14a1.53 1.53 0 0 1-.05-.14 1.3 1.3 0 0 1-.03-.15 1.33 1.33 0 0 1-.03-.15v-.16-.16a1.66 1.66 0 0 1 .06-.3 1.54 1.54 0 0 1 .05-.14l.07-.14.07-.13.1-.13a1.53 1.53 0 0 1 .1-.11c.03-.04.06-.08.1-.1a1.4 1.4 0 0 1 .12-.1 1.25 1.25 0 0 1 .13-.08l.14-.07a1.33 1.33 0 0 1 .14-.05l.14-.04.15-.02a1.41 1.41 0 0 1 .3 0l.15.02a1.33 1.33 0 0 1 .14.04 1.4 1.4 0 0 1 .14.05l.14.07a1.35 1.35 0 0 1 .12.08 1.46 1.46 0 0 1 .12.1 1.52 1.52 0 0 1 .11.1l.1.11a1.45 1.45 0 0 1 .1.13l.07.13.06.14.05.14.04.16a1.58 1.58 0 0 1 .03.3v.16c0 .06-.02.1-.03.15a1.54 1.54 0 0 1-.04.15l-.05.15a1.62 1.62 0 0 1-.23.4 1.53 1.53 0 0 1-.1.11l-.1.1a1.46 1.46 0 0 1-.13.1l-.12.08a1.68 1.68 0 0 1-.28.12 1.33 1.33 0 0 1-.14.04l-.15.02a1.36 1.36 0 0 1-.15 0zM26.19 22.17a1.4 1.4 0 0 1-.15 0l-.15-.03a1.2 1.2 0 0 1-.14-.04 2.07 2.07 0 0 1-.28-.12 1.57 1.57 0 0 1-.25-.17 1.33 1.33 0 0 1-.1-.1 1.52 1.52 0 0 1-.1-.12 1.76 1.76 0 0 1-.24-.4l-.05-.14a1.3 1.3 0 0 1-.03-.15 1.7 1.7 0 0 1-.03-.31v-.16q0-.08.03-.15a1.3 1.3 0 0 1 .03-.15l.05-.15a1.42 1.42 0 0 1 .07-.13l.07-.14.1-.12a1.51 1.51 0 0 1 .1-.12l.1-.1a1.58 1.58 0 0 1 .25-.17 1.47 1.47 0 0 1 .14-.07l.14-.05a1.38 1.38 0 0 1 .14-.04l.15-.02a1.57 1.57 0 0 1 .3 0l.15.02a1.33 1.33 0 0 1 .14.04 1.88 1.88 0 0 1 .4.2 1.3 1.3 0 0 1 .12.09 1.52 1.52 0 0 1 .11.1l.1.12a1.44 1.44 0 0 1 .1.12l.07.14.06.13.05.15.04.15a1.49 1.49 0 0 1 .02.15v.31l-.02.16a1.42 1.42 0 0 1-.04.15l-.05.14-.06.14a1.46 1.46 0 0 1-.27.38l-.1.1a1.3 1.3 0 0 1-.13.1l-.12.07a1.68 1.68 0 0 1-.28.12 1.33 1.33 0 0 1-.14.04l-.15.02a1.43 1.43 0 0 1-.15.01zM20.56 22.17a1.5 1.5 0 0 1-1.07-.46 1.52 1.52 0 0 1-.1-.12 2.16 2.16 0 0 1-.1-.12 1.22 1.22 0 0 1-.07-.14 1.42 1.42 0 0 1-.06-.13 1.53 1.53 0 0 1-.05-.15 2.71 2.71 0 0 1-.06-.3 1.72 1.72 0 0 1 0-.32q0-.08.02-.15a1.58 1.58 0 0 1 .09-.3 1.42 1.42 0 0 1 .06-.14l.08-.14a1.3 1.3 0 0 1 .09-.12 1.52 1.52 0 0 1 .1-.12 1.5 1.5 0 0 1 1.22-.45 1.76 1.76 0 0 1 .3.06 1.31 1.31 0 0 1 .13.05l.14.07a1.57 1.57 0 0 1 .25.17 1.33 1.33 0 0 1 .1.1 1.53 1.53 0 0 1 .1.12 1.76 1.76 0 0 1 .23.4l.05.14a1.3 1.3 0 0 1 .04.15l.02.16a1.5 1.5 0 0 1 0 .31l-.02.16a1.31 1.31 0 0 1-.04.15c0 .05-.03.1-.05.14a1.43 1.43 0 0 1-.06.14l-.08.14-.08.12a1.53 1.53 0 0 1-.1.12l-.11.1a1.57 1.57 0 0 1-.25.17 1.68 1.68 0 0 1-.28.12l-.14.04a1.28 1.28 0 0 1-.15.02 1.4 1.4 0 0 1-.15.01z"/>
  </symbol>
  <symbol id="contact-icon" viewBox="0 0 31 22.3">
    <path d="M30.5 21.8H.5V.5h30v21.3zM1.8 20.5h27.5V1.8H1.8v18.7z"/>
    <path d="M15.5 15.1L.7 1.6l.9-.9 13.9 12.7L29.4.7l.9.9z"/>
    <path d="M.7 20.67l10.93-9.98.88.96-10.93 9.98zM18.43 11.59l.88-.96 10.93 9.98-.88.96z"/>
  </symbol>
  <symbol id="footer-clock-icon" viewBox="0 0 11.05 11.06">
    <path d="M8.92 5.53a.42.42 0 0 0-.41-.43H5.95V2.55a.43.43 0 1 0-.86 0v2.98a.42.42 0 0 0 .43.42h2.99a.42.42 0 0 0 .41-.42m1.28 0A4.68 4.68 0 1 1 5.52.85a4.68 4.68 0 0 1 4.68 4.68m.85 0a5.53 5.53 0 1 0-5.52 5.53 5.52 5.52 0 0 0 5.52-5.53"/>
  </symbol>
  <symbol id="footer-email-icon" viewBox="0 0 11.05 9.21">
    <path d="M5.53 5.06C4.6 5.06 0 1.34 0 1.34V.92A.92.92 0 0 1 .92 0h9.2a.92.92 0 0 1 .93.92v.46s-4.6 3.68-5.53 3.68zm0 1.3c.96 0 5.52-3.6 5.52-3.6V8.3a.92.92 0 0 1-.92.92H.93A.92.92 0 0 1 0 8.29V2.76s4.6 3.6 5.53 3.6z"/>
  </symbol>
  <symbol id="footer-location-icon" viewBox="0 0 9.83 13.88">
    <path d="M4.92 7.17a2.21 2.21 0 0 1-2.2-2.25 2.25 2.25 0 0 1 2.2-2.26 2.21 2.21 0 0 1 2.2 2.25 2.25 2.25 0 0 1-2.2 2.26m0-7.17A4.91 4.91 0 0 0 0 4.92c0 2.6 2.2 5.9 3.7 7.51a15.03 15.03 0 0 1 1.21 1.45s.7-.81 1.28-1.45c1.5-1.56 3.64-4.68 3.64-7.51A4.91 4.91 0 0 0 4.9 0"/>
  </symbol>
  <symbol id="footer-phone-icon" viewBox="0 0 9.5 10.48">
    <path d="M4.02 6.03C3.07 5 2.18 3.81 2.6 3.33c.61-.69 1.15-1.1.05-2.6S.85.39.26 1.04c-.7.76-.04 3.6 2.5 6.4s5.1 3.51 5.8 2.75c.58-.65 1.63-1.46.28-2.65-1.37-1.22-1.75-.63-2.37.05-.43.47-1.51-.51-2.45-1.56z"/>
  </symbol>
  <symbol id="footer-square-menu-icon" viewBox="0 0 9 9">
    <path d="M.21 4.35a.22.22 0 0 0 0 .29l4.1 4.1c.07.07.22.07.29 0l4.1-4.1a.22.22 0 0 0 0-.29L4.6.25a.22.22 0 0 0-.29 0l-4.1 4.1zm.57.15L4.53.75 8.27 4.5 4.53 8.24.78 4.5z"/>
  </symbol>
  <symbol id="facebook-icon" viewBox="0 0 33 33">
    <path class="rounded-bg" d="M16.5.5C7.7.5.5 7.7.5 16.5s7.2 16 16 16 16-7.2 16-16-7.2-16-16-16z" fill="currentColor"/>
    <path class="logo-shape" d="M14.2 25.4h3.7v-8.9h2.5l.3-3.1h-2.8v-1.5c0-.8.1-1.2 1.2-1.2h1.5V7.6h-2.5c-2.9 0-4 1.5-4 4v1.8h-1.8v3.1h1.8c.1 0 .1 8.9.1 8.9z"/>
  </symbol>
  <symbol id="google-plus-icon" viewBox="0 0 33 33">
      <path class="rounded-bg" d="M16.5.5C7.7.5.5 7.7.5 16.5s7.2 16 16 16 16-7.2 16-16-7.2-16-16-16z" fill="currentColor"/>
      <path class="logo-shape" d="M12.7 24.1c-4.2 0-7.7-3.4-7.7-7.6s3.5-7.6 7.7-7.6c1.9 0 3.7.7 5.1 1.9l-2 2.2c-.9-.7-2-1.1-3.1-1.1-2.6 0-4.7 2.1-4.7 4.6s2.1 4.6 4.7 4.6c2.2 0 3.6-1.1 4.1-2.9h-4.1v-2.9H20v1.5c0 4.3-3 7.3-7.3 7.3zM28 15.3h-2.2V13H24v2.3h-2.3V17H24v2.3h1.8V17H28z"/>
  </symbol>
  <symbol id="twitter-icon" viewBox="0 0 33 33">
    <path class="rounded-bg" d="M16.5.5C7.7.5.5 7.7.5 16.5s7.2 16 16 16 16-7.2 16-16-7.2-16-16-16z" fill="currentColor"/>
    <path class="logo-shape" d="M18.7 9.4c-1.6.6-2.6 2.1-2.5 3.7v.6l-.6-.1c-2.3-.3-4.3-1.3-6.1-3l-.7-.8-.2.6c-.5 1.4-.2 2.8.8 3.8.5.5.4.6-.5.3-.3-.1-.6-.2-.6-.1-.1.1.2 1.3.5 1.7.3.6 1 1.3 1.7 1.6l.6.3h-.7c-.7 0-.7 0-.7.3.3.8 1.3 1.7 2.4 2.1l.8.3-.7.4c-1 .6-2.2.9-3.4 1-.6 0-1 .1-1 .1 0 .1 1.6.8 2.5 1.1 2.7.8 5.9.5 8.3-1 1.7-1 3.4-3 4.2-5 .4-1 .9-2.9.9-3.9 0-.6 0-.7.8-1.4.4-.4.8-.9.9-1 .1-.2.1-.2-.5 0-1.1.4-1.2.3-.7-.2.4-.4.9-1.2.9-1.4 0 0-.2 0-.4.1s-.7.3-1.1.4l-.7.2-.9-.2c-.3-.2-.8-.5-1.1-.6-.6-.1-1.6-.1-2.2.1z"/>
  </symbol>
  <symbol id="youtube-icon" viewBox="0 0 33 33">
      <path class="rounded-bg" d="M16.5.5C7.7.5.5 7.7.5 16.5s7.2 16 16 16 16-7.2 16-16-7.2-16-16-16z" fill="currentColor"/>
      <path class="logo-shape" d="M16.5 15.7s6.3 0 7.1.8c.8.8.8 4.5.8 4.5s0 3.7-.8 4.5c-.8.7-7.1.8-7.1.8s-6.3 0-7.1-.8c-.8-.8-.8-4.5-.8-4.5s0-3.7.8-4.5c.8-.8 7.1-.8 7.1-.8z"/>
      <path class="logo-shape" d="M23 21.8v-1.2c0-.4-.1-.8-.3-1-.2-.2-.5-.4-1-.4-.4 0-.7.1-1 .4-.3.3-.4.6-.4 1v2.1c0 .4.1.8.4 1.1.2.3.6.4 1 .4.5 0 .8-.1 1-.4.2-.2.3-.6.3-1.1v-.2h-1v.2c0 .3 0 .5-.1.5s-.2.1-.3.1c-.1 0-.2 0-.3-.1-.1-.1-.1-.3-.1-.5v-.9H23zm-1.8-.7v-.5c0-.2 0-.3.1-.4.1-.1.2-.1.3-.1.1 0 .2 0 .3.1.1.1.1.2.1.4v.5h-.8zM19.6 19.6a.9.9 0 0 0-.7-.3c-.1 0-.3 0-.4.1-.1.1-.3.2-.4.3v-2h-.9V24h.9v-.4c.1.1.3.2.4.3.1.1.3.1.5.1.3 0 .5-.1.6-.3.1-.2.2-.4.2-.8v-2.6c0-.2-.1-.5-.2-.7zm-.7 3.3c0 .1 0 .3-.1.3-.1.1-.1.1-.2.1h-.2c-.1 0-.1-.1-.2-.2v-2.9c.1-.1.1-.1.2-.1h.2c.1 0 .2 0 .3.1.1.1.1.2.1.4-.1-.1-.1 2.3-.1 2.3zM15.6 24v-.5c-.2.2-.3.3-.5.4-.2.1-.4.1-.5.1-.2 0-.4-.1-.5-.2-.1-.1-.2-.3-.2-.6v-3.9h.9V23c0 .1 0 .2.1.2 0 0 .1.1.2.1s.2 0 .3-.1c.1-.1.2-.1.3-.2v-3.5h.9V24h-1zM12.4 18.6V24h-1v-5.4h-1.1v-.9h3.2v.9z" fill="currentColor"/>
      <path class="logo-shape" d="M21.6 13.8h-1v-.6c-.2.2-.4.4-.6.5-.2.1-.4.2-.6.2-.2 0-.4-.1-.5-.2-.1-.2-.2-.4-.2-.7V8.6h1v3.9c0 .1 0 .2.1.3 0 .1.1.1.2.1s.2 0 .3-.1l.3-.3V8.6h1v5.2zM17.5 8.9c-.3-.2-.6-.4-1-.4-.5 0-.8.1-1.1.4-.3.2-.4.6-.4.9v2.7c0 .4.1.8.4 1 .3.3.6.4 1.1.4.5 0 .8-.1 1.1-.4.3-.3.4-.6.4-1V9.8c-.1-.4-.3-.7-.5-.9zm-.7 3.7c0 .1 0 .2-.1.3-.1.1-.2.1-.3.1-.1 0-.2 0-.3-.1-.1-.1-.1-.2-.1-.3V9.8c0-.1 0-.2.1-.3.1-.1.2-.1.3-.1.1 0 .2 0 .3.1.1.1.1.2.1.3v2.8zM12.1 6.8h-1.2l1.4 4.2v2.8h1.1v-2.9l1.4-4.1h-1.2l-.7 2.8h-.1z"/>
  </symbol>
</svg>
